# xmcd CD database file
#
# Track frame offsets:
#	150
#	12097
#	27335
#	40127
#	55448
#	71716
#	84305
#	101900
#	116335
#	126920
#	142190
#	154191
#
# Disc length: 2306 seconds
#
# Revision: 0
# Processed by: cddbd v1.5.2PL0 Copyright (c) Steve Scherf et al.
# Submitted via: CDex 1.79
#
DISCID=a509000c
DTITLE=Erin Hay - Blue Country Song
DYEAR=2010
DGENRE=Country
TTITLE0=I`ll Walk Before I`ll Crawl
TTITLE1=Between An Old Memory And Me
TTITLE2=Empty Arms
TTITLE3=Harper Valley PTA
TTITLE4=Looks Like Lonesome
TTITLE5=Don`t Call Me From A Honky-Tonk
TTITLE6=Blue Country Song
TTITLE7=In For A Heartache
TTITLE8=Country Music`s King
TTITLE9=Long Days
TTITLE10=Somebody Led Me Away
TTITLE11=In Slow Motion
EXTD=YEAR: 2010
EXTT0=
EXTT1=
EXTT2=
EXTT3=
EXTT4=
EXTT5=
EXTT6=
EXTT7=
EXTT8=
EXTT9=
EXTT10=
EXTT11=
PLAYORDER=
